HIERARCHY
ROOT Hips
{
	OFFSET 0.00000 0.00000 0.00000
	CHANNELS 6 Xposition Yposition Zposition Zrotation Yrotation Xrotation 
	JOINT LHipJoint
	{
		OFFSET 0 0 0
		CHANNELS 3 Zrotation Yrotation Xrotation
		JOINT LeftUpLeg
		{
			OFFSET 1.59801 -1.77853 0.57028
			CHANNELS 3 Zrotation Yrotation Xrotation
			JOINT LeftLeg
			{
				OFFSET 2.39439 -6.57854 0.00000
				CHANNELS 3 Zrotation Yrotation Xrotation
				JOINT LeftFoot
				{
					OFFSET 2.69334 -7.39989 0.00000
					CHANNELS 3 Zrotation Yrotation Xrotation
					JOINT LeftToeBase
					{
						OFFSET 0.09553 -0.26245 1.73747
						CHANNELS 3 Zrotation Yrotation Xrotation
						End Site
						{
							OFFSET 0.00000 -0.00000 0.89391
						}
					}
				}
			}
		}
	}
	JOINT RHipJoint
	{
		OFFSET 0 0 0
		CHANNELS 3 Zrotation Yrotation Xrotation
		JOINT RightUpLeg
		{
			OFFSET -1.54704 -1.77852 0.57028
			CHANNELS 3 Zrotation Yrotation Xrotation
			JOINT RightLeg
			{
				OFFSET -2.40286 -6.60180 0.00000
				CHANNELS 3 Zrotation Yrotation Xrotation
				JOINT RightFoot
				{
					OFFSET -2.63873 -7.24984 0.00000
					CHANNELS 3 Zrotation Yrotation Xrotation
					JOINT RightToeBase
					{
						OFFSET -0.15631 -0.42945 1.84436
						CHANNELS 3 Zrotation Yrotation Xrotation
						End Site
						{
							OFFSET -0.00000 -0.00000 0.95734
						}
					}
				}
			}
		}
	}
	JOINT LowerBack
	{
		OFFSET 0 0 0
		CHANNELS 3 Zrotation Yrotation Xrotation
		JOINT Spine
		{
			OFFSET -0.00436 1.89866 -0.04018
			CHANNELS 3 Zrotation Yrotation Xrotation
			JOINT Spine1
			{
				OFFSET 0.02031 1.88273 0.09634
				CHANNELS 3 Zrotation Yrotation Xrotation
				JOINT Neck
				{
					OFFSET 0 0 0
					CHANNELS 3 Zrotation Yrotation Xrotation
					JOINT Neck1
					{
						OFFSET -0.13105 1.89371 0.23083
						CHANNELS 3 Zrotation Yrotation Xrotation
						JOINT Head
						{
							OFFSET 0.17062 1.83990 -0.54062
							CHANNELS 3 Zrotation Yrotation Xrotation
							End Site
							{
								OFFSET 0.04576 1.94782 -0.21839
							}
						}
					}
				}
				JOINT LeftShoulder
				{
					OFFSET 0 0 0
					CHANNELS 3 Zrotation Yrotation Xrotation
					JOINT LeftArm
					{
						OFFSET 3.12424 1.09204 0.22226
						CHANNELS 3 Zrotation Yrotation Xrotation
						JOINT LeftForeArm
						{
							OFFSET 5.29277 -0.00000 0.00000
							CHANNELS 3 Zrotation Yrotation Xrotation
							JOINT LeftHand
							{
								OFFSET 2.85226 -0.00000 0.00000
								CHANNELS 3 Zrotation Yrotation Xrotation
								JOINT LeftFingerBase
								{
									OFFSET 0 0 0
									CHANNELS 3 Zrotation Yrotation Xrotation
									JOINT LeftHandIndex1
									{
										OFFSET 0.60210 -0.00000 0.00000
										CHANNELS 3 Zrotation Yrotation Xrotation
										End Site
										{
											OFFSET 0.48543 -0.00000 0.00000
										}
									}
								}
								JOINT LThumb
								{
									OFFSET 0 0 0
									CHANNELS 3 Zrotation Yrotation Xrotation
									End Site
									{
										OFFSET 0.49284 -0.00000 0.49284
									}
								}
							}
						}
					}
				}
				JOINT RightShoulder
				{
					OFFSET 0 0 0
					CHANNELS 3 Zrotation Yrotation Xrotation
					JOINT RightArm
					{
						OFFSET -2.91709 1.01504 0.30199
						CHANNELS 3 Zrotation Yrotation Xrotation
						JOINT RightForeArm
						{
							OFFSET -5.13304 -0.00000 0.00000
							CHANNELS 3 Zrotation Yrotation Xrotation
							JOINT RightHand
							{
								OFFSET -2.74305 -0.00000 0.00000
								CHANNELS 3 Zrotation Yrotation Xrotation
								JOINT RightFingerBase
								{
									OFFSET 0 0 0
									CHANNELS 3 Zrotation Yrotation Xrotation
									JOINT RightHandIndex1
									{
										OFFSET -0.76798 -0.00000 0.00000
										CHANNELS 3 Zrotation Yrotation Xrotation
										End Site
										{
											OFFSET -0.61916 -0.00000 0.00000
										}
									}
								}
								JOINT RThumb
								{
									OFFSET 0 0 0
									CHANNELS 3 Zrotation Yrotation Xrotation
									End Site
									{
										OFFSET -0.62862 -0.00000 0.62862
									}
								}
							}
						}
					}
				}
			}
		}
	}
}
MOTION
Frames: 15
Frame Time: .0083333
-0.3217 17.3450 -0.2731 -1.7572 3.5644 -0.7961 0.0000 0.0000 0.0000 -16.9041 -16.0330 4.4262 0.8979 6.0393 16.8986 0.7717 1.0384 -17.0032 0.8228 -5.7877 -16.1696 0.0000 0.0000 0.0000 24.2948 8.8868 9.0593 -0.2043 -2.9100 8.0283 0.0850 -11.5492 -15.1793 -0.3592 3.8504 -10.6562 0.6711 -0.1786 -1.3545 -5.6030 -0.2707 -1.5338 -6.1872 -0.1739 -0.8504 -19.3046 -11.5910 -13.4687 3.6149 -12.3851 17.4123 2.6373 -6.7555 9.1809 0.0000 0.0000 0.0000 -26.3595 -28.8917 3.7986 149.2246 -41.5489 -108.0794 -0.0000 -0.0000 10.4086 18.7580 10.5003 3.5416 -7.1250 0.0000 -0.0000 -7.3486 40.9452 0.7393 0.0000 0.0000 0.0000 -8.8787 9.7367 -5.9154 -152.8213 38.3491 -110.3902 0.0000 0.0000 20.5155 -27.2897 18.2895 -9.1965 7.1250 -0.0000 -0.0000 0.5256 -9.5798 0.4308
-0.3206 17.3464 -0.2694 -1.7970 3.5696 -0.7701 0.0000 0.0000 0.0000 -16.8722 -16.0806 4.4632 0.8925 6.0215 16.8469 0.7689 1.1170 -17.0055 0.8566 -5.9022 -16.5010 0.0000 0.0000 0.0000 24.3203 8.8505 9.1718 -0.1918 -2.8205 7.7794 0.1009 -11.6112 -15.0248 -0.3750 3.9331 -10.8886 0.7106 -0.1726 -1.4028 -5.5774 -0.2614 -1.5269 -6.1828 -0.1688 -0.8152 -19.3424 -11.5915 -13.4671 3.6199 -12.3783 17.4028 2.6454 -6.7538 9.1797 -0.0000 -0.0000 0.0000 -26.4093 -28.9273 3.8686 149.2076 -41.5630 -108.0681 -0.0000 -0.0000 10.4663 18.9397 10.4310 3.5551 -7.1250 0.0000 -0.0000 -7.1777 40.8891 0.7319 -0.0000 -0.0000 0.0000 -8.9227 9.7800 -5.8648 -152.7627 38.4046 -110.3538 0.0000 0.0000 20.5455 -27.4614 18.2837 -9.2603 7.1250 -0.0000 -0.0000 0.4135 -9.5568 0.3391
-0.3200 17.3473 -0.2656 -1.8366 3.5345 -0.7923 0.0000 0.0000 0.0000 -16.8531 -16.0588 4.5641 0.8841 5.9937 16.7663 0.7720 1.1650 -17.0593 0.8109 -5.7468 -16.0514 0.0000 0.0000 0.0000 24.3584 8.8338 9.3384 -0.1809 -2.7396 7.5545 0.1079 -11.6181 -14.9251 -0.3752 3.9342 -10.8916 0.7232 -0.1822 -1.3912 -5.5521 -0.2745 -1.5257 -6.1632 -0.1755 -0.8218 -19.4042 -11.5917 -13.3905 3.6791 -12.3934 17.3324 2.6768 -6.7580 9.1516 -0.0000 -0.0000 0.0000 -26.4351 -28.8697 3.8686 149.2379 -41.5377 -108.0883 -0.0000 -0.0000 10.5278 18.9719 10.3943 3.5493 -7.1250 0.0000 -0.0000 -7.1433 40.8539 0.7346 -0.0000 -0.0000 0.0000 -8.9714 9.8927 -5.8110 -152.7382 38.4277 -110.3386 0.0000 0.0000 20.5923 -27.5000 18.2203 -9.2447 7.1250 -0.0000 -0.0000 0.3814 -9.6199 0.3123
-0.3192 17.3474 -0.2625 -1.8384 3.5188 -0.7825 0.0000 0.0000 0.0000 -16.8656 -16.0725 4.6365 0.8750 5.9637 16.6791 0.7777 1.1263 -17.1046 0.7296 -5.4574 -15.2178 0.0000 0.0000 0.0000 24.3560 8.8136 9.4651 -0.1711 -2.6649 7.3470 0.1121 -11.6185 -14.8573 -0.3751 3.9336 -10.8898 0.7105 -0.1889 -1.4173 -5.5534 -0.2827 -1.5225 -6.1575 -0.1791 -0.8047 -19.5190 -11.6211 -13.2253 3.8210 -12.4735 17.1773 2.7389 -6.7866 9.0950 0.0000 -0.0000 0.0000 -26.4378 -28.8207 3.8862 149.3048 -41.4819 -108.1326 -0.0000 -0.0000 10.4909 18.9546 10.4634 3.5690 -7.1250 0.0000 -0.0000 -7.1702 40.9243 0.7249 0.0000 -0.0000 0.0000 -9.0206 9.9234 -5.8298 -152.7903 38.3784 -110.3710 0.0000 0.0000 20.5467 -27.4166 18.0824 -9.1462 7.1250 -0.0000 -0.0000 0.4205 -9.7855 0.3429
-0.3191 17.3500 -0.2602 -1.7996 3.5011 -0.7497 0.0000 0.0000 0.0000 -16.9221 -16.1384 4.7156 0.8630 5.9238 16.5635 0.7710 1.2198 -17.0723 0.7582 -5.5610 -15.5158 0.0000 0.0000 0.0000 24.3128 8.8257 9.5147 -0.1654 -2.6203 7.2233 0.1213 -11.6823 -14.8100 -0.3937 4.0287 -11.1573 0.6784 -0.1627 -1.4547 -5.5892 -0.2463 -1.5171 -6.1769 -0.1601 -0.7740 -19.5400 -11.6465 -13.1704 3.8845 -12.5291 17.1337 2.7579 -6.8074 9.0822 0.0000 -0.0000 0.0000 -26.3791 -28.9055 3.9407 149.2834 -41.4997 -108.1184 -0.0000 -0.0000 10.3423 19.0511 10.4322 3.5780 -7.1250 0.0000 -0.0000 -7.0803 40.9005 0.7199 0.0000 -0.0000 0.0000 -9.0431 9.8829 -5.9091 -152.8464 38.3252 -110.4058 0.0000 0.0000 20.4621 -27.3107 18.0469 -9.0886 7.1250 -0.0000 -0.0000 0.4857 -9.8424 0.3955
-0.3192 17.3516 -0.2583 -1.7623 3.5208 -0.7188 0.0000 0.0000 0.0000 -16.9790 -16.2037 4.7867 0.8512 5.8840 16.4482 0.7546 1.5498 -17.0408 0.9499 -6.2069 -17.3858 0.0000 0.0000 0.0000 24.2605 8.8096 9.5342 -0.1617 -2.5906 7.1409 0.1163 -11.6521 -14.8436 -0.3783 3.9500 -10.9360 0.6419 -0.1448 -1.4790 -5.6126 -0.2204 -1.4929 -6.1806 -0.1458 -0.7325 -19.5911 -11.6990 -13.2809 3.9133 -12.5718 17.1963 2.7608 -6.8275 9.1342 0.0000 0.0000 0.0000 -26.3657 -29.0116 3.9891 149.2603 -41.5191 -108.1030 -0.0000 -0.0000 10.1957 19.2335 10.3948 3.6020 -7.1250 0.0000 -0.0000 -6.9144 40.8777 0.7067 0.0000 0.0000 0.0000 -9.0781 9.8481 -5.9313 -152.8367 38.3345 -110.3998 0.0000 0.0000 20.4757 -27.5397 17.9753 -9.1418 7.1250 -0.0000 -0.0000 0.3288 -9.8822 0.2675
-0.3189 17.3547 -0.2557 -1.6461 3.5499 -0.6743 0.0000 0.0000 0.0000 -17.1273 -16.2628 4.8434 0.8402 5.8469 16.3409 0.7419 1.8378 -17.0364 1.0790 -6.6027 -18.5435 0.0000 0.0000 0.0000 24.1171 8.7943 9.5304 -0.1588 -2.5677 7.0773 0.1124 -11.6193 -14.8545 -0.3646 3.8789 -10.7361 0.5242 -0.1435 -1.5319 -5.6535 -0.2146 -1.4569 -6.1563 -0.1402 -0.6647 -19.6426 -11.7552 -13.3693 3.9458 -12.6238 17.1768 2.7660 -6.8490 9.1549 0.0000 0.0000 0.0000 -26.3323 -29.0806 3.9804 149.2362 -41.5392 -108.0871 -0.0000 -0.0000 10.0913 19.3990 10.3852 3.6321 -7.1250 0.0000 -0.0000 -6.7679 40.8825 0.6908 0.0000 0.0000 0.0000 -9.0959 9.8478 -5.9608 -152.7838 38.3846 -110.3670 0.0000 0.0000 20.6001 -27.7295 17.9990 -9.2261 7.1250 -0.0000 -0.0000 0.2078 -9.8240 0.1693
-0.3191 17.3545 -0.2546 -1.6466 3.5708 -0.6647 0.0000 0.0000 0.0000 -17.1314 -16.2950 4.8999 0.8308 5.8148 16.2481 0.7395 1.7837 -16.9842 1.0026 -6.3717 -17.8667 0.0000 0.0000 0.0000 24.1126 8.7714 9.5582 -0.1560 -2.5446 7.0132 0.1179 -11.6324 -14.7849 -0.3786 3.9519 -10.9415 0.5141 -0.1493 -1.5159 -5.6750 -0.2227 -1.4555 -6.1733 -0.1444 -0.6732 -19.5798 -11.7481 -13.3920 3.9418 -12.6216 17.1480 2.7560 -6.8431 9.1434 0.0000 0.0000 0.0000 -26.3259 -29.0972 3.9859 149.2487 -41.5288 -108.0954 -0.0000 -0.0000 10.0274 19.4573 10.3312 3.6252 -7.1250 0.0000 -0.0000 -6.7079 40.8312 0.6931 0.0000 0.0000 0.0000 -8.9687 9.8667 -5.8774 -152.7521 38.4146 -110.3472 0.0000 0.0000 20.8414 -27.8412 18.0745 -9.3060 7.1250 -0.0000 -0.0000 0.1435 -9.7217 0.1172
-0.3182 17.3543 -0.2521 -1.6865 3.5716 -0.6584 0.0000 0.0000 0.0000 -17.1145 -16.3856 4.9952 0.8228 5.7875 16.1690 0.7525 1.6335 -17.0564 0.8126 -5.7523 -16.0674 0.0000 0.0000 0.0000 24.1507 8.7648 9.5980 -0.1528 -2.5185 6.9409 0.1327 -11.7194 -14.6830 -0.4105 4.1127 -11.3940 0.5453 -0.1507 -1.4945 -5.6787 -0.2267 -1.4830 -6.1952 -0.1479 -0.7142 -19.5374 -11.7121 -13.3686 3.9353 -12.5857 17.1497 2.7552 -6.8252 9.1320 0.0000 -0.0000 0.0000 -26.3618 -29.0648 4.0138 149.2745 -41.5072 -108.1125 -0.0000 -0.0000 10.0074 19.3759 10.2273 3.5731 -7.1250 0.0000 -0.0000 -6.7621 40.7151 0.7182 0.0000 -0.0000 0.0000 -8.8537 9.8385 -5.7616 -152.8245 38.3460 -110.3922 0.0000 0.0000 21.0233 -27.9219 18.1337 -9.3662 7.1250 -0.0000 -0.0000 0.0977 -9.6426 0.0800
-0.3181 17.3553 -0.2490 -1.6485 3.5399 -0.6468 0.0000 0.0000 0.0000 -17.1821 -16.4421 5.0645 0.8182 5.7718 16.1237 0.7612 1.6109 -17.1399 0.7145 -5.4019 -15.0586 0.0000 0.0000 0.0000 24.1057 8.7819 9.6715 -0.1475 -2.4747 6.8195 0.1474 -11.8024 -14.5758 -0.4382 4.2476 -11.7744 0.4989 -0.1054 -1.4786 -5.7335 -0.1675 -1.5085 -6.2263 -0.1188 -0.7430 -19.4458 -11.6997 -13.3294 3.8964 -12.5907 17.1876 2.7301 -6.8279 9.1297 -0.0000 -0.0000 0.0000 -26.3356 -29.1469 4.0787 149.2772 -41.5049 -108.1143 -0.0000 -0.0000 10.0493 19.3082 10.2645 3.5724 -7.1250 0.0000 -0.0000 -6.8275 40.7480 0.7197 -0.0000 -0.0000 0.0000 -8.7805 9.7029 -5.6947 -152.9268 38.2489 -110.4556 0.0000 0.0000 21.0289 -27.8283 18.1058 -9.3163 7.1250 -0.0000 -0.0000 0.1554 -9.6894 0.1270
-0.3180 17.3562 -0.2462 -1.6479 3.5250 -0.6279 0.0000 0.0000 0.0000 -17.1933 -16.4568 5.0977 0.8131 5.7542 16.0730 0.7480 1.7626 -17.0664 0.7885 -5.6685 -15.8255 0.0000 0.0000 0.0000 24.0997 8.7891 9.7230 -0.1431 -2.4375 6.7164 0.1478 -11.8064 -14.5755 -0.4353 4.2340 -11.7359 0.5174 -0.0458 -1.5112 -5.7945 -0.0851 -1.4673 -6.3011 -0.0760 -0.6733 -19.4224 -11.7495 -13.2811 3.9584 -12.6860 17.0720 2.7370 -6.8618 9.0939 -0.0000 0.0000 0.0000 -26.2420 -29.3480 4.0581 149.2718 -41.5094 -108.1107 -0.0000 -0.0000 10.1751 19.2661 10.2735 3.5671 -7.1250 0.0000 -0.0000 -6.8658 40.7539 0.7228 -0.0000 0.0000 0.0000 -8.7528 9.5318 -5.7653 -152.9851 38.1934 -110.4917 0.0000 0.0000 20.9785 -27.5914 18.0790 -9.2118 7.1250 -0.0000 -0.0000 0.3065 -9.7595 0.2501
-0.3185 17.3568 -0.2443 -1.6867 3.5165 -0.6205 0.0000 0.0000 0.0000 -17.1528 -16.4472 5.1293 0.8076 5.7352 16.0179 0.7343 2.0587 -17.0583 0.9853 -6.3181 -17.7101 0.0000 0.0000 0.0000 24.1403 8.7875 9.7760 -0.1390 -2.4031 6.6212 0.1461 -11.7839 -14.5660 -0.4021 4.0709 -11.2761 0.5377 -0.0356 -1.5344 -5.7898 -0.0694 -1.4331 -6.3075 -0.0669 -0.6232 -19.4465 -11.7629 -13.2768 3.9711 -12.6995 16.9483 2.7447 -6.8639 9.0540 0.0000 -0.0000 0.0000 -26.2333 -29.3873 4.0051 149.2897 -41.4945 -108.1225 -0.0000 -0.0000 10.2096 19.1962 10.3121 3.5663 -7.1250 0.0000 -0.0000 -6.9333 40.7880 0.7241 0.0000 -0.0000 0.0000 -8.8181 9.5134 -5.8139 -153.0134 38.1664 -110.5092 0.0000 0.0000 20.9163 -27.4540 18.0331 -9.1369 7.1250 -0.0000 -0.0000 0.3909 -9.8332 0.3184
-0.3190 17.3569 -0.2430 -1.6854 3.5021 -0.6101 0.0000 0.0000 0.0000 -17.1655 -16.4837 5.1668 0.8044 5.7239 15.9855 0.7299 2.2776 -17.1194 1.0875 -6.6277 -18.6170 0.0000 0.0000 0.0000 24.1343 8.7905 9.8364 -0.1345 -2.3641 6.5130 0.1514 -11.8052 -14.5134 -0.3950 4.0356 -11.1770 0.5248 -0.0332 -1.5321 -5.8122 -0.0657 -1.4232 -6.3238 -0.0647 -0.6139 -19.3349 -11.7364 -13.3961 3.8674 -12.6395 16.9920 2.6973 -6.8379 9.0679 0.0000 -0.0000 0.0000 -26.1936 -29.4192 3.9525 149.3217 -41.4677 -108.1438 -0.0000 -0.0000 10.1518 18.9799 10.3741 3.5440 -7.1250 0.0000 -0.0000 -7.1329 40.8334 0.7371 0.0000 -0.0000 0.0000 -8.8246 9.5206 -5.8281 -153.0490 38.1324 -110.5312 0.0000 0.0000 20.9987 -27.6136 17.9050 -9.1360 7.1250 -0.0000 -0.0000 0.2729 -9.9470 0.2217
-0.3189 17.3576 -0.2421 -1.6852 3.4844 -0.6101 0.0000 0.0000 0.0000 -17.1834 -16.5292 5.2133 0.8012 5.7128 15.9534 0.7287 2.2430 -17.0887 1.0161 -6.4132 -17.9882 0.0000 0.0000 0.0000 24.1278 8.7956 9.8990 -0.1304 -2.3273 6.4112 0.1615 -11.8586 -14.4322 -0.4159 4.1394 -11.4692 0.4955 -0.0622 -1.5280 -5.7947 -0.1037 -1.4100 -6.2886 -0.0832 -0.6068 -19.2282 -11.6864 -13.5875 3.6647 -12.5104 17.1320 2.6224 -6.7913 9.1146 -0.0000 0.0000 0.0000 -26.2424 -29.3526 3.8692 149.3742 -41.4238 -108.1785 -0.0000 -0.0000 10.1575 18.9293 10.3902 3.5393 -7.1250 0.0000 -0.0000 -7.1799 40.8457 0.7399 -0.0000 0.0000 0.0000 -8.8597 9.6272 -5.8507 -153.0142 38.1656 -110.5097 0.0000 0.0000 21.1341 -27.9256 17.9576 -9.2812 7.1250 -0.0000 -0.0000 0.0756 -9.8360 0.0616
-0.3192 17.3574 -0.2426 -1.7234 3.4500 -0.6217 0.0000 0.0000 0.0000 -17.1476 -16.5219 5.2519 0.7973 5.6995 15.9150 0.7284 2.1855 -17.0566 0.9551 -6.2234 -17.4340 0.0000 0.0000 0.0000 24.1694 8.8200 9.9533 -0.1274 -2.3005 6.3370 0.1689 -11.8888 -14.3568 -0.4233 4.1760 -11.5723 0.5069 -0.0756 -1.5105 -5.7705 -0.1218 -1.4000 -6.2696 -0.0922 -0.6082 -19.1741 -11.6510 -13.5755 3.5560 -12.4515 17.0742 2.5892 -6.7689 9.0747 -0.0000 -0.0000 0.0000 -26.2360 -29.2386 3.7995 149.4080 -41.3954 -108.2009 -0.0000 -0.0000 10.1745 18.9750 10.3382 3.5310 -7.1250 0.0000 -0.0000 -7.1311 40.7956 0.7436 -0.0000 -0.0000 0.0000 -8.8824 9.7064 -5.8307 -153.0167 38.1633 -110.5112 0.0000 0.0000 21.1475 -28.0742 18.0770 -9.3974 7.1250 -0.0000 -0.0000 -0.0076 -9.6786 -0.0062
